<svg width="49" height="46" viewBox="0 0 49 46" fill="none" xmlns="http://www.w3.org/2000/svg">
<g clip-path="url(#clip0_1_6214)">
<path d="M29.5817 21.4075H40.6717M7.76367 1.09521H40.6717M29.5817 28.5769H40.6717" stroke="#2348AB" stroke-width="2" stroke-linecap="round"/>
<path d="M44.2178 6.86932H4.21777C2.56092 6.86932 1.21777 8.34039 1.21777 10.155V39.6257C1.21777 41.4404 2.56092 42.9114 4.21777 42.9114H44.2178C45.8746 42.9114 47.2178 41.4404 47.2178 39.6257V10.155C47.2178 8.34039 45.8746 6.86932 44.2178 6.86932Z" stroke="#2348AB" stroke-width="2"/>
<path d="M15.512 25.7059C18.2409 25.7059 20.4532 23.5858 20.4532 20.9706C20.4532 18.3554 18.2409 16.2353 15.512 16.2353C12.783 16.2353 10.5708 18.3554 10.5708 20.9706C10.5708 23.5858 12.783 25.7059 15.512 25.7059Z" stroke="#2348AB" stroke-width="2"/>
<path d="M7.74756 32.4706C7.966 30.7605 8.87616 29.488 10.118 28.6113C11.5642 27.5881 13.522 27.0588 15.5123 27.0588C17.5045 27.0588 19.4624 27.5897 20.9085 28.6113C22.1504 29.4896 23.0606 30.7605 23.277 32.4706H7.74756Z" stroke="#2348AB" stroke-width="2"/>
</g>
<defs>
<clipPath id="clip0_1_6214">
<rect width="48" height="46" fill="white" transform="translate(0.217773)"/>
</clipPath>
</defs>
</svg>
