<svg width="18" height="18" viewBox="0 0 18 18" fill="none" xmlns="http://www.w3.org/2000/svg">
<path fill-rule="evenodd" clip-rule="evenodd" d="M12.9375 16.875C13.2482 16.875 13.5 16.6232 13.5 16.3125V3.0455L17.0398 6.58525C17.2594 6.80492 17.6156 6.80492 17.8352 6.58525C18.0549 6.36558 18.0549 6.00942 17.8352 5.78975L13.3352 1.28975C13.1156 1.07008 12.7594 1.07008 12.5398 1.28975L8.03975 5.78975C7.82008 6.00942 7.82008 6.36558 8.03975 6.58525C8.25942 6.80492 8.61558 6.80492 8.83525 6.58525L12.375 3.0455V16.3125C12.375 16.6232 12.6268 16.875 12.9375 16.875Z" fill="#747582"/>
<path fill-rule="evenodd" clip-rule="evenodd" d="M5.0625 1.125C5.37316 1.125 5.625 1.37684 5.625 1.6875V14.9545L9.16475 11.4148C9.38442 11.1951 9.74058 11.1951 9.96025 11.4148C10.1799 11.6344 10.1799 11.9906 9.96025 12.2102L5.46025 16.7102C5.24058 16.9299 4.88442 16.9299 4.66475 16.7102L0.164752 12.2102C-0.0549175 11.9906 -0.0549175 11.6344 0.164752 11.4148C0.384422 11.1951 0.740579 11.1951 0.960248 11.4148L4.5 14.9545V1.6875C4.5 1.37684 4.75184 1.125 5.0625 1.125Z" fill="#747582"/>
</svg>
