<svg width="20" height="18" viewBox="0 0 20 18" fill="none" xmlns="http://www.w3.org/2000/svg">
<path fill-rule="evenodd" clip-rule="evenodd" d="M13.9375 16.875C14.2482 16.875 14.5 16.6232 14.5 16.3125V3.0455L18.0398 6.58525C18.2594 6.80492 18.6156 6.80492 18.8352 6.58525C19.0549 6.36558 19.0549 6.00942 18.8352 5.78975L14.3352 1.28975C14.1156 1.07008 13.7594 1.07008 13.5398 1.28975L9.03975 5.78975C8.82008 6.00942 8.82008 6.36558 9.03975 6.58525C9.25942 6.80492 9.61558 6.80492 9.83525 6.58525L13.375 3.0455V16.3125C13.375 16.6232 13.6268 16.875 13.9375 16.875Z" fill="white" stroke="white" stroke-linecap="round" stroke-linejoin="round"/>
<path fill-rule="evenodd" clip-rule="evenodd" d="M6.0625 1.125C6.37316 1.125 6.625 1.37684 6.625 1.6875V14.9545L10.1648 11.4148C10.3844 11.1951 10.7406 11.1951 10.9602 11.4148C11.1799 11.6344 11.1799 11.9906 10.9602 12.2102L6.46025 16.7102C6.24058 16.9299 5.88442 16.9299 5.66475 16.7102L1.16475 12.2102C0.945083 11.9906 0.945083 11.6344 1.16475 11.4148C1.38442 11.1951 1.74058 11.1951 1.96025 11.4148L5.5 14.9545V1.6875C5.5 1.37684 5.75184 1.125 6.0625 1.125Z" fill="white" stroke="white" stroke-linecap="round" stroke-linejoin="round"/>
</svg>
