<svg width="19" height="18" viewBox="0 0 19 18" fill="none" xmlns="http://www.w3.org/2000/svg">
<path fill-rule="evenodd" clip-rule="evenodd" d="M4.4375 6.75C4.12684 6.75 3.875 7.00184 3.875 7.3125V16.3125C3.875 16.6232 4.12684 16.875 4.4375 16.875H14.5625C14.8732 16.875 15.125 16.6232 15.125 16.3125V7.3125C15.125 7.00184 14.8732 6.75 14.5625 6.75H12.3125C12.0018 6.75 11.75 6.49816 11.75 6.1875C11.75 5.87684 12.0018 5.625 12.3125 5.625H14.5625C15.4945 5.625 16.25 6.38052 16.25 7.3125V16.3125C16.25 17.2445 15.4945 18 14.5625 18H4.4375C3.50552 18 2.75 17.2445 2.75 16.3125V7.3125C2.75 6.38052 3.50552 5.625 4.4375 5.625H6.6875C6.99816 5.625 7.25 5.87684 7.25 6.1875C7.25 6.49816 6.99816 6.75 6.6875 6.75H4.4375Z" fill="#747582"/>
<path fill-rule="evenodd" clip-rule="evenodd" d="M9.10225 13.3352C9.32192 13.5549 9.67808 13.5549 9.89775 13.3352L13.2727 9.96025C13.4924 9.74058 13.4924 9.38442 13.2727 9.16475C13.0531 8.94508 12.6969 8.94508 12.4773 9.16475L10.0625 11.5795V1.6875C10.0625 1.37684 9.81066 1.125 9.5 1.125C9.18934 1.125 8.9375 1.37684 8.9375 1.6875V11.5795L6.52275 9.16475C6.30308 8.94508 5.94692 8.94508 5.72725 9.16475C5.50758 9.38442 5.50758 9.74058 5.72725 9.96025L9.10225 13.3352Z" fill="#747582"/>
</svg>
