<svg width="105" height="104" viewBox="0 0 105 104" fill="none" xmlns="http://www.w3.org/2000/svg">
<g filter="url(#filter0_d_105_3025)">
<g clip-path="url(#clip0_105_3025)">
<path d="M112.5 -8H-7.5V112H112.5V-8Z" fill="white"/>
<path d="M7.61719 43.514H19.845V46.4937H11.5456V50.8245H18.7311V53.5034H11.5456V58.2832H20.1246V61.2903H7.61719V43.514Z" fill="#3D3D3D"/>
<path d="M20.9602 57.2084L24.2469 56.7319C24.3317 58.3858 25.6404 59.3113 27.4511 59.3113C28.9335 59.3113 30.0411 58.7353 30.0411 57.8289C30.0136 57.0538 29.2618 56.6027 27.4998 56.2024L25.4731 55.7408C22.7709 55.1054 21.5955 54.0042 21.6294 52.1004C21.6294 49.6713 23.8573 48.0936 27.0042 48.0936C29.986 48.0936 32.3537 49.521 32.576 52.0008L29.3168 52.4752C29.2342 51.1495 28.2579 50.4464 26.8899 50.4464C25.6912 50.4464 24.8844 51.0478 24.8844 51.8229C24.8569 52.5493 25.5515 53.0004 27.1673 53.4261L29.2003 53.9004C32.1271 54.6014 33.4358 55.7048 33.4358 57.5557C33.4358 60.061 30.8734 61.6874 27.3346 61.6874C23.7959 61.6874 21.0724 60.1118 20.9602 57.2084Z" fill="#3D3D3D"/>
<path d="M34.3278 54.9043C34.3278 50.7492 36.92 48.0936 40.8463 48.0936C44.0229 48.0936 46.3333 49.8471 46.9475 52.651L43.576 53.3774C43.2139 51.7171 42.155 50.798 40.8653 50.798C39.1118 50.798 37.9407 52.3503 37.9407 54.9043C37.9407 57.4583 39.2791 59.0106 41.2275 59.0106C42.9005 59.0106 44.1245 57.8585 44.4316 55.9314L47.8009 56.482C47.3011 59.6586 44.7387 61.7149 41.1999 61.7149C37.0026 61.7149 34.3003 59.0614 34.3278 54.9043Z" fill="#3D3D3D"/>
<path d="M60.0675 52.4523L57.0031 53.2274C56.9206 51.601 56.2238 50.6988 55.1099 50.6988C53.6613 50.6988 52.7973 52.0754 52.7973 54.4303V61.2897H49.1484V48.5197H52.1006L52.5474 50.6586H52.5749C53.2103 49.083 54.5529 48.1554 56.1751 48.1554C58.5067 48.1448 59.9553 49.7225 60.0675 52.4523Z" fill="#3D3D3D"/>
<path d="M60.7349 54.8801C60.7349 50.7505 63.4879 48.1033 67.7552 48.1033C72.0224 48.1033 74.7755 50.759 74.7755 54.8801C74.7755 59.0012 72.0224 61.7162 67.7552 61.7162C63.4879 61.7162 60.7349 59.0372 60.7349 54.8801ZM71.1542 54.8801C71.1542 52.4278 69.8157 50.9009 67.7658 50.9009C65.7158 50.9009 64.3668 52.4278 64.3668 54.8801C64.3668 57.3325 65.6777 58.9038 67.7658 58.9038C69.8539 58.9038 71.1499 57.36 71.1499 54.8801H71.1542Z" fill="#3D3D3D"/>
<path d="M74.749 48.5205H78.4275L80.9688 58.0101H80.9985L83.7516 48.5205H87.5105L90.325 58.0864H90.3526L92.824 48.5205H96.5004L92.6567 61.2905H88.3661L85.6363 51.8263H85.5813L82.9341 61.2905H78.6181L74.749 48.5205Z" fill="#3D3D3D"/>
<path d="M58.2442 67.365C58.5611 67.3592 58.8774 67.3962 59.1844 67.4751C59.4051 67.5312 59.6195 67.61 59.824 67.7102C59.9817 67.7935 60.0799 67.847 60.1216 67.8708L59.5682 68.7128C59.4888 68.6576 59.4063 68.607 59.3212 68.5611C59.1874 68.4891 59.0469 68.4303 58.9017 68.3855C58.7299 68.3343 58.5514 68.3092 58.3721 68.3112C58.1433 68.301 57.9158 68.3502 57.7116 68.454C57.6362 68.4924 57.573 68.5513 57.5293 68.6239C57.4857 68.6965 57.4633 68.7798 57.4647 68.8645C57.4663 68.9878 57.5166 69.1054 57.6045 69.1918C57.7146 69.3048 57.8461 69.3949 57.9913 69.4566C58.1955 69.5556 58.4051 69.643 58.6191 69.7184C58.8326 69.7935 59.0405 69.884 59.2409 69.9892C59.4327 70.085 59.6108 70.2061 59.7705 70.3492C59.9245 70.4831 60.0508 70.6458 60.1424 70.8282C60.2377 71.0235 60.2856 71.2386 60.2822 71.4559C60.2872 71.6967 60.2265 71.9343 60.1067 72.1432C59.9869 72.3423 59.8231 72.5113 59.6277 72.6371C59.4115 72.7741 59.1743 72.8746 58.9255 72.9346C58.6549 73.0011 58.3771 73.0341 58.0984 73.0328C57.7414 73.0372 57.3854 72.9952 57.0393 72.9078C56.7783 72.8422 56.5242 72.7515 56.2806 72.6371C56.1635 72.5822 56.0502 72.5196 55.9414 72.4497L56.5216 71.5749C56.5573 71.5987 56.6257 71.6404 56.7269 71.6969C56.8477 71.76 56.9719 71.8166 57.0988 71.8665C57.255 71.9266 57.415 71.9763 57.5778 72.0153C57.7522 72.0569 57.931 72.0779 58.1103 72.0778C58.3701 72.0964 58.6289 72.0307 58.8482 71.8903C58.9266 71.8364 58.9904 71.7638 59.0341 71.6792C59.0777 71.5946 59.0997 71.5005 59.0981 71.4054C59.0987 71.2589 59.0421 71.118 58.9404 71.0126C58.8108 70.8835 58.6598 70.7779 58.4941 70.7002C58.2958 70.605 58.0667 70.5059 57.8069 70.4027C57.55 70.3054 57.3022 70.186 57.066 70.0457C56.8492 69.9174 56.6617 69.7451 56.5156 69.5399C56.3705 69.3208 56.2977 69.0617 56.3074 68.7991C56.3024 68.5226 56.3987 68.2538 56.5781 68.0434C56.7693 67.8176 57.0151 67.6445 57.2922 67.5406C57.5956 67.4227 57.9186 67.3632 58.2442 67.365Z" fill="#3246A9"/>
<path d="M62.9017 68.3798H61.4141V67.4664H65.5436V68.3798H64.056V72.9349H62.9225L62.9017 68.3798Z" fill="#3246A9"/>
<path d="M68.1123 67.4664H69.2489L71.5517 72.9349H70.3467L69.8796 71.7448H67.4994L67.0234 72.9349H65.8125L68.1123 67.4664ZM67.8594 70.8373H69.5077L68.6865 68.716L67.8594 70.8373Z" fill="#3246A9"/>
<path d="M75.537 72.0074C75.8214 72.0125 76.1048 71.9713 76.376 71.8854C76.5656 71.8299 76.7468 71.7488 76.9145 71.6444L77.3995 72.537C77.1798 72.6883 76.9365 72.8019 76.6795 72.8732C76.2855 72.9942 75.8747 73.0514 75.4626 73.0428C75.0418 73.0457 74.6238 72.9742 74.2279 72.8315C73.8571 72.6969 73.5142 72.4952 73.2164 72.2365C72.9327 71.9875 72.702 71.6839 72.538 71.3439C72.3731 70.9952 72.2887 70.6139 72.2911 70.2282C72.2888 69.841 72.3721 69.4579 72.535 69.1066C72.6956 68.7645 72.9268 68.4603 73.2134 68.214C73.5101 67.9538 73.8533 67.7519 74.2249 67.619C74.6208 67.4717 75.0403 67.398 75.4626 67.4018C75.8747 67.3931 76.2855 67.4504 76.6795 67.5714C76.936 67.644 77.1791 67.7575 77.3995 67.9076L76.9145 68.8001C76.7463 68.6958 76.5653 68.6138 76.376 68.5562C76.1045 68.4717 75.8214 68.4305 75.537 68.4342C75.2463 68.4297 74.9572 68.477 74.6831 68.574C74.4474 68.6604 74.2317 68.7941 74.0494 68.9667C73.8779 69.1294 73.7422 69.326 73.6507 69.5439C73.4722 69.993 73.4722 70.4933 73.6507 70.9423C73.7395 71.1669 73.8755 71.3698 74.0494 71.5373C74.2365 71.6887 74.4519 71.8009 74.6831 71.8676C74.9568 71.966 75.2462 72.0134 75.537 72.0074Z" fill="#3246A9"/>
<path d="M80.9333 70.1322L83.2688 72.9349H81.9151L79.9187 70.4892V72.9349H78.7852V67.4664H79.9187V69.8049L81.7604 67.4664H83.0427L80.9333 70.1322Z" fill="#3246A9"/>
<path d="M85.3239 73.0327C85.131 73.0365 84.9442 72.965 84.8032 72.8333C84.7341 72.7749 84.6788 72.702 84.6412 72.6196C84.6037 72.5373 84.5848 72.4477 84.586 72.3573C84.5847 72.2655 84.6035 72.1746 84.641 72.0908C84.6785 72.0071 84.7339 71.9325 84.8032 71.8723C84.9488 71.7457 85.1353 71.676 85.3283 71.676C85.5213 71.676 85.7078 71.7457 85.8534 71.8723C85.9217 71.9332 85.9762 72.0079 86.0131 72.0916C86.0501 72.1752 86.0687 72.2658 86.0677 72.3573C86.0686 72.4474 86.0499 72.5367 86.0129 72.6189C85.9759 72.7011 85.9215 72.7742 85.8534 72.8333C85.7099 72.9667 85.5197 73.0383 85.3239 73.0327Z" fill="#3246A9"/>
<path d="M88.4461 68.6523C88.267 68.657 88.0931 68.592 87.9611 68.4708C87.9007 68.4151 87.8525 68.3475 87.8195 68.2722C87.7866 68.1969 87.7695 68.1157 87.7695 68.0335C87.7695 67.9513 87.7866 67.87 87.8195 67.7947C87.8525 67.7195 87.9007 67.6518 87.9611 67.5961C88.0909 67.4727 88.264 67.4054 88.4431 67.4087C88.5616 67.4084 88.6783 67.438 88.7823 67.495C88.8821 67.5498 88.9677 67.6272 89.0322 67.7211C89.0947 67.8143 89.1278 67.9242 89.1274 68.0365C89.1271 68.1192 89.1089 68.2009 89.074 68.2759C89.039 68.3509 88.9882 68.4174 88.9251 68.4708C88.7946 68.5905 88.6231 68.6555 88.4461 68.6523ZM87.851 72.9336V69.533H88.9965V72.9336H87.851Z" fill="#3246A9"/>
<path d="M92.471 73.0323C92.1047 73.039 91.7418 72.9595 91.4118 72.8003C91.1173 72.6582 90.8665 72.4393 90.6859 72.1666C90.5095 71.8917 90.4184 71.5708 90.4241 71.2442C90.4188 70.9159 90.5098 70.5932 90.6859 70.316C90.8667 70.0405 91.1172 69.8178 91.4118 69.6704C91.7409 69.5078 92.104 69.4261 92.471 69.4323C92.8371 69.4255 93.1995 69.5071 93.5272 69.6704C93.8179 69.8189 94.0643 70.0416 94.2413 70.316C94.415 70.5941 94.5049 70.9164 94.5001 71.2442C94.5053 71.5703 94.4153 71.8908 94.2413 72.1666C94.0645 72.4381 93.8179 72.657 93.5272 72.8003C93.1985 72.9602 92.8365 73.0397 92.471 73.0323ZM92.471 72.1576C92.6438 72.1619 92.8149 72.122 92.9679 72.0416C93.1045 71.965 93.2169 71.8516 93.2922 71.7143C93.3683 71.5672 93.4081 71.404 93.4081 71.2383C93.4081 71.0726 93.3683 70.9094 93.2922 70.7623C93.2171 70.6232 93.1048 70.5079 92.9679 70.429C92.8145 70.349 92.644 70.3072 92.471 70.3072C92.298 70.3072 92.1276 70.349 91.9742 70.429C91.8364 70.5078 91.7231 70.6231 91.6469 70.7623C91.5688 70.9088 91.5279 71.0723 91.5279 71.2383C91.5279 71.4043 91.5688 71.5678 91.6469 71.7143C91.7234 71.8518 91.8367 71.9651 91.9742 72.0416C92.1264 72.1251 92.2974 72.1681 92.471 72.1666V72.1576Z" fill="#3246A9"/>
<path d="M34.9705 44.0388L34.5978 43.6703C34.5756 43.7104 34.5501 43.7487 34.5216 43.7846L32.6855 45.6186C32.533 45.7711 32.4102 45.7944 32.3064 45.6927C32.2026 45.5911 32.228 45.4598 32.3742 45.3136C32.9841 44.7065 33.5947 44.0995 34.206 43.4924C34.2428 43.4608 34.2842 43.4351 34.3288 43.4161L33.9731 43.0561C33.9413 43.0858 33.9032 43.1175 33.8693 43.1535L31.561 45.4619C31.5266 45.4983 31.489 45.5316 31.4487 45.5614C31.411 45.5896 31.3641 45.6029 31.3172 45.5986C31.2702 45.5943 31.2266 45.5727 31.1946 45.5381C31.159 45.5108 31.1345 45.4715 31.1256 45.4276C31.1166 45.3836 31.1238 45.3379 31.1459 45.2988C31.1787 45.2457 31.2186 45.1972 31.2645 45.1548L33.5516 42.8613C33.5967 42.8235 33.6449 42.7895 33.6956 42.7596L33.5643 42.622C33.4097 42.4632 33.4097 42.3657 33.5643 42.1984L34.062 41.6965C34.0874 41.6711 34.1128 41.6415 34.1446 41.6055C34.1086 41.5673 34.0768 41.5292 34.0408 41.4953L32.4652 39.9176C32.281 39.7334 32.2789 39.6487 32.4652 39.4665C32.8888 39.043 33.3123 38.6046 33.7528 38.1959C33.9348 38.0231 34.1492 37.8879 34.3836 37.7981C34.618 37.7083 34.8679 37.6658 35.1188 37.6728C35.5288 37.6731 35.9285 37.8011 36.2623 38.0392L36.3449 38.0964C36.3548 38.0972 36.3647 38.0972 36.3746 38.0964C36.6012 37.8846 36.8235 37.658 37.0565 37.4483C37.8643 36.7188 38.8731 36.2495 39.9515 36.1015C40.5008 36.0252 41.0581 36.0252 41.6075 36.1015C41.7981 36.1269 41.8595 36.1883 41.8871 36.381C42.0064 37.1165 41.974 37.8687 41.7919 38.5912C41.6098 39.3138 41.2819 39.9915 40.8282 40.5826C40.5847 40.9066 40.2839 41.1883 40.0086 41.4869C39.9639 41.5286 39.9149 41.5655 39.8625 41.597C40.1835 41.9939 40.3443 42.4965 40.3133 43.006C40.2824 43.5155 40.0619 43.995 39.6952 44.3501C39.2992 44.7503 38.8989 45.1463 38.5008 45.5445C38.3462 45.6948 38.253 45.6948 38.0942 45.5445L36.4995 43.9477C36.4617 43.9006 36.4271 43.8511 36.3958 43.7994L35.896 44.3162L35.7964 44.4136C35.6291 44.5809 35.5402 44.5809 35.3729 44.4136L35.2628 44.3119C35.2225 44.3501 35.1865 44.3818 35.1526 44.4178L32.8443 46.7241C32.6855 46.8829 32.5732 46.9062 32.4673 46.8003C32.3615 46.6944 32.3848 46.5885 32.5415 46.4212C33.3081 45.6532 34.074 44.8866 34.8392 44.1213C34.8804 44.0899 34.9244 44.0623 34.9705 44.0388ZM35.1018 40.015L37.9883 42.9015L38.0667 42.8338C38.7217 42.1773 39.3768 41.5201 40.0319 40.8621C40.5176 40.3793 40.9001 39.803 41.1564 39.1679C41.1732 39.1401 41.1792 39.1071 41.1734 39.0751C41.1675 39.0431 41.1502 39.0144 41.1247 38.9943C40.4188 38.2884 39.7129 37.5825 39.0069 36.8765C38.9871 36.8507 38.9587 36.8328 38.9268 36.8262C38.8949 36.8196 38.8617 36.8247 38.8333 36.8405C38.2422 37.0755 37.7026 37.4237 37.245 37.8655C36.5376 38.5602 35.8409 39.2654 35.1399 39.9642L35.1018 40.015ZM36.9908 43.8503L37.6262 43.215L34.7672 40.356L34.1319 40.9913L36.9908 43.8503ZM39.4644 36.6499L41.3534 38.5686C41.5323 37.9069 41.5706 37.2151 41.4656 36.5377C40.7989 36.4303 40.1171 36.4642 39.4644 36.6372V36.6499ZM33.9942 42.4144C34.5216 42.9396 35.0531 43.4733 35.5741 43.9964L36.0336 43.5411L34.4559 41.957L33.9942 42.4144Z" fill="#3246A9"/>
<path d="M32.0293 46.1781C32.0041 46.2681 31.9559 46.35 31.8894 46.4158C31.823 46.4815 31.7405 46.5288 31.6502 46.5529C31.6138 46.5518 31.5783 46.5413 31.5472 46.5224C31.516 46.5035 31.4902 46.477 31.4724 46.4452C31.4545 46.4135 31.4451 46.3777 31.4451 46.3413C31.4451 46.3049 31.4544 46.2691 31.4723 46.2374C31.5354 46.1431 31.6168 46.0624 31.7116 46.0002C31.7434 45.9818 31.7794 45.972 31.8161 45.9718C31.8528 45.9715 31.889 45.9808 31.921 45.9988C31.9531 46.0167 31.9799 46.0427 31.9989 46.0741C32.0178 46.1055 32.0283 46.1414 32.0293 46.1781Z" fill="#3246A9"/>
<path d="M38.2943 41.2622C37.8775 41.2622 37.4778 41.0967 37.1831 40.802C36.8885 40.5073 36.7229 40.1076 36.7229 39.6909C36.7229 39.2741 36.8885 38.8744 37.1831 38.5797C37.4778 38.2851 37.8775 38.1195 38.2943 38.1195C38.5006 38.1195 38.705 38.1602 38.8956 38.2391C39.0862 38.3181 39.2595 38.4338 39.4054 38.5797C39.5513 38.7257 39.667 38.8989 39.746 39.0895C39.825 39.2802 39.8656 39.4845 39.8656 39.6909C39.8656 39.8972 39.825 40.1016 39.746 40.2922C39.667 40.4829 39.5513 40.6561 39.4054 40.802C39.2595 40.9479 39.0862 41.0637 38.8956 41.1426C38.705 41.2216 38.5006 41.2622 38.2943 41.2622ZM38.9825 39.7015C38.9848 39.6111 38.9689 39.5211 38.9356 39.4371C38.9024 39.353 38.8526 39.2764 38.7892 39.212C38.7257 39.1476 38.65 39.0966 38.5664 39.062C38.4828 39.0275 38.3931 39.0102 38.3027 39.0111C38.1205 39.0105 37.9454 39.0818 37.8154 39.2094C37.6854 39.3371 37.6109 39.5108 37.6081 39.693C37.6114 39.8756 37.6854 40.0499 37.8146 40.1791C37.9437 40.3082 38.118 40.3822 38.3006 40.3855C38.4812 40.3833 38.6536 40.3104 38.7811 40.1826C38.9086 40.0547 38.9809 39.882 38.9825 39.7015Z" fill="#3246A9"/>
<path d="M38.5107 39.6999C38.5107 39.7561 38.4884 39.81 38.4487 39.8497C38.409 39.8894 38.3551 39.9117 38.2989 39.9117C38.2719 39.9115 38.2451 39.9057 38.2203 39.8948C38.1956 39.8839 38.1733 39.868 38.1549 39.8482C38.1364 39.8284 38.1222 39.805 38.1131 39.7795C38.104 39.754 38.1002 39.7269 38.102 39.6999C38.102 39.6438 38.1243 39.5899 38.164 39.5502C38.2037 39.5105 38.2576 39.4882 38.3137 39.4882C38.3673 39.4919 38.4174 39.5159 38.454 39.5552C38.4906 39.5945 38.5108 39.6462 38.5107 39.6999Z" fill="#3246A9"/>
</g>
</g>
<defs>
<filter id="filter0_d_105_3025" x="0.5" y="0" width="104" height="104" filterUnits="userSpaceOnUse" color-interpolation-filters="sRGB">
<feFlood flood-opacity="0" result="BackgroundImageFix"/>
<feColorMatrix in="SourceAlpha" type="matrix" values="0 0 0 0 0 0 0 0 0 0 0 0 0 0 0 0 0 0 127 0" result="hardAlpha"/>
<feOffset/>
<feGaussianBlur stdDeviation="1"/>
<feComposite in2="hardAlpha" operator="out"/>
<feColorMatrix type="matrix" values="0 0 0 0 0 0 0 0 0 0 0 0 0 0 0 0 0 0 0.25 0"/>
<feBlend mode="normal" in2="BackgroundImageFix" result="effect1_dropShadow_105_3025"/>
<feBlend mode="normal" in="SourceGraphic" in2="effect1_dropShadow_105_3025" result="shape"/>
</filter>
<clipPath id="clip0_105_3025">
<rect x="2.5" y="2" width="100" height="100" rx="50" fill="white"/>
</clipPath>
</defs>
</svg>
