<svg width="36" height="37" viewBox="0 0 36 37" fill="none" xmlns="http://www.w3.org/2000/svg">
<g filter="url(#filter0_d_1_614)">
<g clip-path="url(#clip0_1_614)">
<path d="M34.8002 2.17432H1.2002V35.7743H34.8002V2.17432Z" fill="white"/>
<path d="M34.8002 2.17432H1.2002V35.7743H34.8002V2.17432Z" fill="white"/>
<path d="M6.29199 21.1561H9.70216V20.2415H7.39333V19.1273H9.36849V18.32H7.39333V17.312H9.63566V16.4043H6.29199V21.1561Z" fill="#3D3D3D"/>
<path d="M11.4971 21.2762C12.4783 21.2762 13.1584 20.8223 13.1584 20.1153C13.1584 19.5472 12.7921 19.2403 11.9311 19.0863L11.4236 19C11.0164 18.9265 10.8426 18.8203 10.8426 18.6465C10.8496 18.44 11.0899 18.2732 11.4108 18.2732C11.7771 18.2732 12.0513 18.4598 12.0781 18.7527L12.9449 18.6267C12.8586 18.0258 12.2508 17.6187 11.4434 17.6187C10.5696 17.6187 9.97578 18.0457 9.97578 18.7398C9.97578 19.301 10.2954 19.588 11.0503 19.7082L11.5566 19.7875C12.0373 19.868 12.2449 19.9882 12.2449 20.1947C12.2449 20.428 11.9381 20.5948 11.5566 20.5948C11.0969 20.5948 10.7423 20.3615 10.7096 19.9952L9.82178 20.0943C9.86844 20.8562 10.5754 21.2762 11.4971 21.2762Z" fill="#3D3D3D"/>
<path d="M15.121 21.2893C16.0951 21.2893 16.829 20.6896 16.9223 19.8076L15.975 19.6746C15.9213 20.1413 15.5806 20.4621 15.1536 20.4621C14.6601 20.4621 14.2996 20.055 14.2926 19.4471C14.2926 18.8405 14.6263 18.4333 15.0871 18.4333C15.4336 18.4333 15.7346 18.6736 15.8081 19.1205L16.7356 18.8801C16.5886 18.1195 15.9213 17.605 15.0603 17.605C13.9986 17.605 13.2788 18.3528 13.2788 19.4471C13.2788 20.5426 14.0196 21.2893 15.121 21.2893Z" fill="#3D3D3D"/>
<path d="M19.0913 17.6318C18.6713 17.6318 18.3166 17.8792 18.1299 18.2933H18.1229L17.9701 17.7392H17.1558V21.1563H18.1766V19.2943C18.1766 18.7332 18.4099 18.3995 18.7903 18.3995C19.0843 18.3995 19.2779 18.6398 19.3118 19.061L20.1728 18.8265C20.0923 18.0658 19.6851 17.6318 19.0913 17.6318Z" fill="#3D3D3D"/>
<path d="M22.174 21.2893C23.322 21.2893 24.0768 20.5625 24.0768 19.4471C24.0768 18.333 23.322 17.605 22.174 17.605C21.033 17.605 20.2793 18.333 20.2793 19.4471C20.2793 20.5625 21.033 21.2893 22.174 21.2893ZM22.174 20.4423C21.6268 20.4423 21.2803 20.062 21.2803 19.4471C21.2803 18.8335 21.6268 18.4531 22.174 18.4531C22.7211 18.4531 23.0688 18.8335 23.0688 19.4471C23.0688 20.062 22.7211 20.4423 22.174 20.4423Z" fill="#3D3D3D"/>
<path d="M25.1645 21.1559H26.3254L27.0662 18.7736H27.079L27.8339 21.1559H28.9947L30.0435 17.7388H29.0215L28.3612 20.2553H28.3542L27.5469 17.7388H26.5995L25.798 20.2284H25.791L25.1377 17.7388H24.1099L25.1645 21.1559Z" fill="#3D3D3D"/>
<path d="M21.3536 22.1147C21.4078 22.1147 21.4612 22.1229 21.5134 22.1392C21.5662 22.155 21.6056 22.1705 21.6313 22.1859L21.6674 22.2104L21.5741 22.3947C21.5671 22.3901 21.5569 22.384 21.5438 22.3761C21.5303 22.3685 21.5056 22.358 21.4691 22.3446C21.4332 22.3315 21.3997 22.3247 21.3688 22.3247C21.3306 22.3247 21.3011 22.3329 21.2801 22.3492C21.2591 22.3656 21.2486 22.3877 21.2486 22.4157C21.2486 22.4297 21.2533 22.4426 21.2626 22.4542C21.2725 22.4659 21.2894 22.4787 21.3128 22.4927C21.3367 22.5062 21.3577 22.517 21.3758 22.5254C21.3944 22.5333 21.4224 22.5452 21.4598 22.5616C21.5257 22.5896 21.5817 22.6278 21.6278 22.6759C21.6744 22.7235 21.6978 22.7774 21.6978 22.8381C21.6978 22.8964 21.6873 22.9475 21.6663 22.9909C21.6453 23.0347 21.6164 23.0688 21.5799 23.0936C21.5432 23.1178 21.5029 23.1356 21.4586 23.1472C21.4143 23.1595 21.3664 23.1659 21.3151 23.1659C21.2708 23.1659 21.227 23.1612 21.1844 23.1519C21.1416 23.1435 21.1057 23.1327 21.0771 23.1192C21.0491 23.1052 21.0234 23.0918 21.0001 23.0784C20.9773 23.0653 20.9607 23.0545 20.9499 23.0457L20.9336 23.0317L21.0491 22.8369C21.059 22.8457 21.0727 22.8565 21.0899 22.8696C21.1068 22.8821 21.1372 22.8987 21.1809 22.9197C21.2253 22.9407 21.2641 22.9512 21.2976 22.9512C21.3956 22.9512 21.4446 22.9183 21.4446 22.8521C21.4446 22.8381 21.4411 22.8252 21.4341 22.8136C21.4271 22.8019 21.4146 22.7902 21.3968 22.7786C21.3787 22.7663 21.3632 22.7564 21.3501 22.7494C21.3367 22.7424 21.3145 22.7319 21.2836 22.7179C21.2533 22.7033 21.2305 22.6922 21.2159 22.6852C21.1544 22.6549 21.1066 22.6173 21.0724 22.5721C21.0389 22.5263 21.0223 22.477 21.0223 22.4239C21.0223 22.3329 21.0555 22.2588 21.1226 22.2011C21.1903 22.1436 21.2673 22.1147 21.3536 22.1147Z" fill="#2348AB"/>
<path d="M22.0337 22.3539V22.1509H22.7477V22.3539H22.5062V23.1659H22.2752V22.3539H22.0337Z" fill="#2348AB"/>
<path d="M23.7077 22.1509L24.1172 23.1659H23.8687L23.794 22.9629H23.4078L23.332 23.1659H23.0835L23.493 22.1509H23.7077ZM23.7147 22.7599L23.6015 22.4647H23.5992L23.486 22.7599H23.7147Z" fill="#2348AB"/>
<path d="M25.0388 22.9384C25.0738 22.9384 25.1079 22.9332 25.1415 22.9221C25.1747 22.9113 25.1992 22.9011 25.215 22.8917L25.2383 22.8754L25.3363 23.0726C25.3331 23.0749 25.3284 23.0781 25.3223 23.0819C25.3168 23.086 25.3036 23.0936 25.2826 23.1052C25.2616 23.1163 25.2389 23.126 25.215 23.1344C25.1916 23.1423 25.1604 23.149 25.1216 23.1554C25.0834 23.1624 25.0438 23.1659 25.0026 23.1659C24.9084 23.1659 24.8189 23.1432 24.7343 23.0971C24.6503 23.0504 24.582 22.9868 24.5301 22.9057C24.4788 22.8241 24.4531 22.7363 24.4531 22.6421C24.4531 22.5706 24.4683 22.5021 24.4986 22.4367C24.529 22.3708 24.5692 22.3142 24.62 22.2676C24.6704 22.2209 24.729 22.1842 24.7961 22.1567C24.8638 22.1287 24.9326 22.1147 25.0026 22.1147C25.0685 22.1147 25.1292 22.1226 25.1846 22.1381C25.2398 22.1538 25.2791 22.1693 25.3025 22.1847L25.3363 22.2081L25.2383 22.4041C25.2319 22.3994 25.2231 22.3936 25.2115 22.3866C25.2004 22.3796 25.1776 22.3708 25.1426 22.3597C25.1082 22.3481 25.0738 22.3422 25.0388 22.3422C24.9828 22.3422 24.9326 22.3513 24.8883 22.3691C24.844 22.3872 24.809 22.4108 24.7833 22.4402C24.7576 22.47 24.7378 22.5018 24.7238 22.5359C24.7104 22.5695 24.704 22.6042 24.704 22.6397C24.704 22.7167 24.7325 22.7862 24.7903 22.8474C24.8486 22.9081 24.9315 22.9384 25.0388 22.9384Z" fill="#2348AB"/>
<path d="M26.5964 23.1659H26.2779L25.9034 22.7354V23.1659H25.6724V22.1509H25.9034V22.5662L26.2522 22.1509H26.5322L26.1239 22.6327L26.5964 23.1659Z" fill="#2348AB"/>
<path d="M27.0721 22.8838C27.1118 22.8838 27.145 22.8978 27.1725 22.9258C27.2005 22.9532 27.2145 22.9865 27.2145 23.0261C27.2145 23.0643 27.2005 23.0973 27.1725 23.1253C27.145 23.1524 27.1118 23.1661 27.0721 23.1661C27.0339 23.1661 27.001 23.1524 26.973 23.1253C26.9455 23.0973 26.9321 23.0643 26.9321 23.0261C26.9321 22.9865 26.9455 22.9532 26.973 22.9258C27.001 22.8978 27.0339 22.8838 27.0721 22.8838Z" fill="#2348AB"/>
<path d="M12.6613 17.0241L12.6193 17.0661C12.5963 17.0892 12.5963 17.1268 12.6193 17.1498C12.6427 17.1732 12.6803 17.1732 12.7033 17.1498L12.7453 17.1081C12.7684 17.0848 12.7684 17.0475 12.7453 17.0241C12.722 17.0011 12.6847 17.0011 12.6613 17.0241Z" fill="#2348AB"/>
<mask id="mask0_1_614" style="mask-type:luminance" maskUnits="userSpaceOnUse" x="12" y="14" width="4" height="4">
<path d="M12.5122 14.3823H15.3968V17.2573H12.5122V14.3823Z" fill="white"/>
</mask>
<g mask="url(#mask0_1_614)">
<path d="M15.3415 14.4758C15.3371 14.4513 15.3178 14.4321 15.2933 14.4277C14.841 14.3478 14.36 14.4869 14.017 14.8299L13.8974 14.9495C13.688 14.7821 13.3809 14.7952 13.1872 14.9892L12.8518 15.3243C12.8288 15.3476 12.8288 15.3853 12.8518 15.4083C12.8915 15.448 13.261 15.8175 13.3129 15.8694L13.1452 16.0371C13.1222 16.0602 13.1222 16.0978 13.1452 16.1208L13.1872 16.1628L12.5353 16.8147C12.5123 16.8378 12.5123 16.8754 12.5353 16.8984C12.5584 16.9215 12.596 16.9215 12.6191 16.8984L13.2709 16.2466L13.3549 16.3306L12.8288 16.8564C12.8057 16.8798 12.8057 16.9171 12.8288 16.9404C12.8521 16.9635 12.8894 16.9635 12.9128 16.9404L13.4386 16.4143L13.5226 16.4983L12.8708 17.1498C12.8474 17.1732 12.8474 17.2108 12.8708 17.2338C12.8938 17.2569 12.9314 17.2569 12.9545 17.2338L13.6063 16.582L13.6483 16.624C13.6714 16.647 13.709 16.647 13.7321 16.624L13.8998 16.4563C13.9426 16.4991 14.3028 16.8593 14.3609 16.9174C14.3839 16.9404 14.4216 16.9404 14.4446 16.9174L14.78 16.582C14.974 16.3883 14.9871 16.0812 14.8197 15.8718L14.9393 15.7522C15.2633 15.4281 15.4261 14.9545 15.3415 14.4758ZM13.6901 16.4983C13.4538 16.2617 13.3153 16.1232 13.2709 16.0788L13.3966 15.9531C13.4249 15.9814 13.7875 16.344 13.8161 16.3726L13.6901 16.4983ZM14.0675 16.4563C13.8286 16.2174 13.5483 15.9371 13.3129 15.7017L13.4806 15.534L14.2352 16.2886L14.0675 16.4563ZM14.8553 15.6685L14.3189 16.2048L13.5643 15.4503C13.6279 15.3867 14.0199 14.9944 14.1007 14.9139C14.2358 14.7789 14.3959 14.6768 14.5697 14.6109L15.1583 15.1995C15.0924 15.3733 14.9903 15.5334 14.8553 15.6685ZM15.1991 15.0729L14.6963 14.5701C14.8687 14.5237 15.0507 14.5117 15.2315 14.5377C15.2575 14.7185 15.2455 14.9005 15.1991 15.0729Z" fill="#2348AB"/>
<path d="M14.1097 15.0728C13.9478 15.2347 13.9478 15.498 14.1097 15.6596C14.2719 15.8218 14.5344 15.8218 14.6965 15.6596C14.8584 15.498 14.8584 15.2347 14.6965 15.0728C14.5344 14.9106 14.2719 14.9106 14.1097 15.0728ZM14.5288 15.2405C14.5982 15.3099 14.5982 15.4228 14.5288 15.4919C14.4594 15.5613 14.3465 15.5613 14.2774 15.4919C14.208 15.4228 14.208 15.3099 14.2774 15.2405C14.3465 15.1711 14.4594 15.1711 14.5288 15.2405Z" fill="#2348AB"/>
<path d="M14.4447 15.4084C14.4681 15.3854 14.4681 15.3477 14.4447 15.3244C14.4217 15.3014 14.3841 15.3014 14.361 15.3244C14.338 15.3477 14.338 15.3851 14.361 15.4084C14.3841 15.4315 14.4217 15.4315 14.4447 15.4084Z" fill="#2348AB"/>
</g>
</g>
</g>
<defs>
<filter id="filter0_d_1_614" x="0" y="0.974121" width="36" height="36" filterUnits="userSpaceOnUse" color-interpolation-filters="sRGB">
<feFlood flood-opacity="0" result="BackgroundImageFix"/>
<feColorMatrix in="SourceAlpha" type="matrix" values="0 0 0 0 0 0 0 0 0 0 0 0 0 0 0 0 0 0 127 0" result="hardAlpha"/>
<feOffset/>
<feGaussianBlur stdDeviation="2"/>
<feComposite in2="hardAlpha" operator="out"/>
<feColorMatrix type="matrix" values="0 0 0 0 0 0 0 0 0 0 0 0 0 0 0 0 0 0 0.1 0"/>
<feBlend mode="normal" in2="BackgroundImageFix" result="effect1_dropShadow_1_614"/>
<feBlend mode="normal" in="SourceGraphic" in2="effect1_dropShadow_1_614" result="shape"/>
</filter>
<clipPath id="clip0_1_614">
<rect x="4" y="4.97412" width="28" height="28" rx="14" fill="white"/>
</clipPath>
</defs>
</svg>
