<svg width="17" height="18" viewBox="0 0 17 18" fill="none" xmlns="http://www.w3.org/2000/svg">
<path d="M6 12.3125C6 12.0018 6.25184 11.75 6.5625 11.75H8.8125C9.12316 11.75 9.375 12.0018 9.375 12.3125C9.375 12.6232 9.12316 12.875 8.8125 12.875H6.5625C6.25184 12.875 6 12.6232 6 12.3125Z" fill="#747582"/>
<path d="M6 10.0625C6 9.75184 6.25184 9.5 6.5625 9.5H12.1875C12.4982 9.5 12.75 9.75184 12.75 10.0625C12.75 10.3732 12.4982 10.625 12.1875 10.625H6.5625C6.25184 10.625 6 10.3732 6 10.0625Z" fill="#747582"/>
<path d="M6 7.8125C6 7.50184 6.25184 7.25 6.5625 7.25H12.1875C12.4982 7.25 12.75 7.50184 12.75 7.8125C12.75 8.12316 12.4982 8.375 12.1875 8.375H6.5625C6.25184 8.375 6 8.12316 6 7.8125Z" fill="#747582"/>
<path d="M6 5.5625C6 5.25184 6.25184 5 6.5625 5H12.1875C12.4982 5 12.75 5.25184 12.75 5.5625C12.75 5.87316 12.4982 6.125 12.1875 6.125H6.5625C6.25184 6.125 6 5.87316 6 5.5625Z" fill="#747582"/>
<path d="M3.375 0H14.625C15.8676 0 16.875 1.00736 16.875 2.25V15.75C16.875 16.9926 15.8676 18 14.625 18H3.375C2.13236 18 1.125 16.9926 1.125 15.75V14.625H2.25V15.75C2.25 16.3713 2.75368 16.875 3.375 16.875H14.625C15.2463 16.875 15.75 16.3713 15.75 15.75V2.25C15.75 1.62868 15.2463 1.125 14.625 1.125H3.375C2.75368 1.125 2.25 1.62868 2.25 2.25V3.375H1.125V2.25C1.125 1.00736 2.13236 0 3.375 0Z" fill="#747582"/>
<path d="M1.125 5.625V5.0625C1.125 4.75184 1.37684 4.5 1.6875 4.5C1.99816 4.5 2.25 4.75184 2.25 5.0625V5.625H2.8125C3.12316 5.625 3.375 5.87684 3.375 6.1875C3.375 6.49816 3.12316 6.75 2.8125 6.75H0.5625C0.25184 6.75 0 6.49816 0 6.1875C0 5.87684 0.25184 5.625 0.5625 5.625H1.125Z" fill="#747582"/>
<path d="M1.125 9V8.4375C1.125 8.12684 1.37684 7.875 1.6875 7.875C1.99816 7.875 2.25 8.12684 2.25 8.4375V9H2.8125C3.12316 9 3.375 9.25184 3.375 9.5625C3.375 9.87316 3.12316 10.125 2.8125 10.125H0.5625C0.25184 10.125 0 9.87316 0 9.5625C0 9.25184 0.25184 9 0.5625 9H1.125Z" fill="#747582"/>
<path d="M1.125 12.375V11.8125C1.125 11.5018 1.37684 11.25 1.6875 11.25C1.99816 11.25 2.25 11.5018 2.25 11.8125V12.375H2.8125C3.12316 12.375 3.375 12.6268 3.375 12.9375C3.375 13.2482 3.12316 13.5 2.8125 13.5H0.5625C0.25184 13.5 0 13.2482 0 12.9375C0 12.6268 0.25184 12.375 0.5625 12.375H1.125Z" fill="#747582"/>
</svg>
