<svg width="18" height="24" viewBox="0 0 18 24" fill="none" xmlns="http://www.w3.org/2000/svg">
<mask id="path-1-inside-1_144_340" fill="white">
<path d="M15.5 0H2.5C1.121 0 0 1.121 0 2.5V24H18V2.5C18 1.121 16.879 0 15.5 0ZM17 23H1V2.5C1 1.673 1.673 1 2.5 1H15.5C16.327 1 17 1.673 17 2.5V23ZM4 5H14V6H4V5ZM4 10H14V11H4V10ZM4 15H9V16H4V15Z"/>
</mask>
<path d="M15.5 0H2.5C1.121 0 0 1.121 0 2.5V24H18V2.5C18 1.121 16.879 0 15.5 0ZM17 23H1V2.5C1 1.673 1.673 1 2.5 1H15.5C16.327 1 17 1.673 17 2.5V23ZM4 5H14V6H4V5ZM4 10H14V11H4V10ZM4 15H9V16H4V15Z" fill="#747582"/>
<path d="M0 24H-21.3333V45.3333H0V24ZM18 24V45.3333H39.3333V24H18ZM17 23V44.3333H38.3333V23H17ZM1 23H-20.3333V44.3333H1V23ZM4 5V-16.3333H-17.3333V5H4ZM14 5H35.3333V-16.3333H14V5ZM14 6V27.3333H35.3333V6H14ZM4 6H-17.3333V27.3333H4V6ZM4 10V-11.3333H-17.3333V10H4ZM14 10H35.3333V-11.3333H14V10ZM14 11V32.3333H35.3333V11H14ZM4 11H-17.3333V32.3333H4V11ZM4 15V-6.33333H-17.3333V15H4ZM9 15H30.3333V-6.33333H9V15ZM9 16V37.3333H30.3333V16H9ZM4 16H-17.3333V37.3333H4V16ZM15.5 -21.3333H2.5V21.3333H15.5V-21.3333ZM2.5 -21.3333C-10.6611 -21.3333 -21.3333 -10.6611 -21.3333 2.5H21.3333C21.3333 12.9031 12.9031 21.3333 2.5 21.3333V-21.3333ZM-21.3333 2.5V24H21.3333V2.5H-21.3333ZM0 45.3333H18V2.66667H0V45.3333ZM39.3333 24V2.5H-3.33333V24H39.3333ZM39.3333 2.5C39.3333 -10.6611 28.6611 -21.3333 15.5 -21.3333V21.3333C5.09692 21.3333 -3.33333 12.9031 -3.33333 2.5H39.3333ZM17 1.66667H1V44.3333H17V1.66667ZM22.3333 23V2.5H-20.3333V23H22.3333ZM22.3333 2.5C22.3333 13.4551 13.4551 22.3333 2.5 22.3333V-20.3333C-10.1091 -20.3333 -20.3333 -10.1091 -20.3333 2.5H22.3333ZM2.5 22.3333H15.5V-20.3333H2.5V22.3333ZM15.5 22.3333C4.54493 22.3333 -4.33333 13.4551 -4.33333 2.5H38.3333C38.3333 -10.1091 28.1091 -20.3333 15.5 -20.3333V22.3333ZM-4.33333 2.5V23H38.3333V2.5H-4.33333ZM4 26.3333H14V-16.3333H4V26.3333ZM-7.33333 5V6H35.3333V5H-7.33333ZM14 -15.3333H4V27.3333H14V-15.3333ZM25.3333 6V5H-17.3333V6H25.3333ZM4 31.3333H14V-11.3333H4V31.3333ZM-7.33333 10V11H35.3333V10H-7.33333ZM14 -10.3333H4V32.3333H14V-10.3333ZM25.3333 11V10H-17.3333V11H25.3333ZM4 36.3333H9V-6.33333H4V36.3333ZM-12.3333 15V16H30.3333V15H-12.3333ZM9 -5.33333H4V37.3333H9V-5.33333ZM25.3333 16V15H-17.3333V16H25.3333Z" fill="#747582" mask="url(#path-1-inside-1_144_340)"/>
<path d="M11 15H14M11 16.25H14M13.125 19.5L11 17.5H11.75C13.4167 17.5 13.4167 15 11.75 15" stroke="#747582" stroke-width="0.5" stroke-linecap="round" stroke-linejoin="round"/>
</svg>
