<svg width="19" height="20" viewBox="0 0 19 20" fill="none" xmlns="http://www.w3.org/2000/svg">
<path d="M7 13.3125C7 13.0018 7.25184 12.75 7.5625 12.75H9.8125C10.1232 12.75 10.375 13.0018 10.375 13.3125C10.375 13.6232 10.1232 13.875 9.8125 13.875H7.5625C7.25184 13.875 7 13.6232 7 13.3125Z" fill="#F5F5F5"/>
<path d="M7 11.0625C7 10.7518 7.25184 10.5 7.5625 10.5H13.1875C13.4982 10.5 13.75 10.7518 13.75 11.0625C13.75 11.3732 13.4982 11.625 13.1875 11.625H7.5625C7.25184 11.625 7 11.3732 7 11.0625Z" fill="#F5F5F5"/>
<path d="M7 8.8125C7 8.50184 7.25184 8.25 7.5625 8.25H13.1875C13.4982 8.25 13.75 8.50184 13.75 8.8125C13.75 9.12316 13.4982 9.375 13.1875 9.375H7.5625C7.25184 9.375 7 9.12316 7 8.8125Z" fill="#F5F5F5"/>
<path d="M7 6.5625C7 6.25184 7.25184 6 7.5625 6H13.1875C13.4982 6 13.75 6.25184 13.75 6.5625C13.75 6.87316 13.4982 7.125 13.1875 7.125H7.5625C7.25184 7.125 7 6.87316 7 6.5625Z" fill="#F5F5F5"/>
<path d="M4.375 1H15.625C16.8676 1 17.875 2.00736 17.875 3.25V16.75C17.875 17.9926 16.8676 19 15.625 19H4.375C3.13236 19 2.125 17.9926 2.125 16.75V15.625H3.25V16.75C3.25 17.3713 3.75368 17.875 4.375 17.875H15.625C16.2463 17.875 16.75 17.3713 16.75 16.75V3.25C16.75 2.62868 16.2463 2.125 15.625 2.125H4.375C3.75368 2.125 3.25 2.62868 3.25 3.25V4.375H2.125V3.25C2.125 2.00736 3.13236 1 4.375 1Z" fill="#F5F5F5"/>
<path d="M2.125 6.625V6.0625C2.125 5.75184 2.37684 5.5 2.6875 5.5C2.99816 5.5 3.25 5.75184 3.25 6.0625V6.625H3.8125C4.12316 6.625 4.375 6.87684 4.375 7.1875C4.375 7.49816 4.12316 7.75 3.8125 7.75H1.5625C1.25184 7.75 1 7.49816 1 7.1875C1 6.87684 1.25184 6.625 1.5625 6.625H2.125Z" fill="#F5F5F5"/>
<path d="M2.125 10V9.4375C2.125 9.12684 2.37684 8.875 2.6875 8.875C2.99816 8.875 3.25 9.12684 3.25 9.4375V10H3.8125C4.12316 10 4.375 10.2518 4.375 10.5625C4.375 10.8732 4.12316 11.125 3.8125 11.125H1.5625C1.25184 11.125 1 10.8732 1 10.5625C1 10.2518 1.25184 10 1.5625 10H2.125Z" fill="#F5F5F5"/>
<path d="M2.125 13.375V12.8125C2.125 12.5018 2.37684 12.25 2.6875 12.25C2.99816 12.25 3.25 12.5018 3.25 12.8125V13.375H3.8125C4.12316 13.375 4.375 13.6268 4.375 13.9375C4.375 14.2482 4.12316 14.5 3.8125 14.5H1.5625C1.25184 14.5 1 14.2482 1 13.9375C1 13.6268 1.25184 13.375 1.5625 13.375H2.125Z" fill="#F5F5F5"/>
<path d="M4.375 1H15.625C16.8676 1 17.875 2.00736 17.875 3.25V16.75C17.875 17.9926 16.8676 19 15.625 19H4.375C3.13236 19 2.125 17.9926 2.125 16.75V15.625H3.25V16.75C3.25 17.3713 3.75368 17.875 4.375 17.875H15.625C16.2463 17.875 16.75 17.3713 16.75 16.75V3.25C16.75 2.62868 16.2463 2.125 15.625 2.125H4.375C3.75368 2.125 3.25 2.62868 3.25 3.25V4.375H2.125V3.25C2.125 2.00736 3.13236 1 4.375 1Z" stroke="#F5F5F5"/>
<path d="M2.125 6.625V6.0625C2.125 5.75184 2.37684 5.5 2.6875 5.5C2.99816 5.5 3.25 5.75184 3.25 6.0625V6.625H3.8125C4.12316 6.625 4.375 6.87684 4.375 7.1875C4.375 7.49816 4.12316 7.75 3.8125 7.75H1.5625C1.25184 7.75 1 7.49816 1 7.1875C1 6.87684 1.25184 6.625 1.5625 6.625H2.125Z" stroke="#F5F5F5"/>
<path d="M2.125 10V9.4375C2.125 9.12684 2.37684 8.875 2.6875 8.875C2.99816 8.875 3.25 9.12684 3.25 9.4375V10H3.8125C4.12316 10 4.375 10.2518 4.375 10.5625C4.375 10.8732 4.12316 11.125 3.8125 11.125H1.5625C1.25184 11.125 1 10.8732 1 10.5625C1 10.2518 1.25184 10 1.5625 10H2.125Z" stroke="#F5F5F5"/>
<path d="M2.125 13.375V12.8125C2.125 12.5018 2.37684 12.25 2.6875 12.25C2.99816 12.25 3.25 12.5018 3.25 12.8125V13.375H3.8125C4.12316 13.375 4.375 13.6268 4.375 13.9375C4.375 14.2482 4.12316 14.5 3.8125 14.5H1.5625C1.25184 14.5 1 14.2482 1 13.9375C1 13.6268 1.25184 13.375 1.5625 13.375H2.125Z" stroke="#F5F5F5"/>
</svg>
