<svg width="24" height="24" viewBox="0 0 24 24" fill="none" xmlns="http://www.w3.org/2000/svg">
<g clip-path="url(#clip0_144_156)">
<path d="M18.5 0H5.5C4.121 0 3 1.121 3 2.5V24H21V2.5C21 1.121 19.879 0 18.5 0ZM20 23H4V2.5C4 1.673 4.673 1 5.5 1H18.5C19.327 1 20 1.673 20 2.5V23ZM7 5H17V6H7V5ZM7 10H17V11H7V10ZM7 15H12V16H7V15Z" fill="white" stroke="white" stroke-width="0.5"/>
<path d="M14 15H17M14 16.25H17M16.125 19.5L14 17.5H14.75C16.4167 17.5 16.4167 15 14.75 15" stroke="white" stroke-width="0.5" stroke-linecap="round" stroke-linejoin="round"/>
<path d="M14 15H17M14 16.25H17M16.125 19.5L14 17.5H14.75C16.4167 17.5 16.4167 15 14.75 15" stroke="white" stroke-width="0.5" stroke-linecap="round" stroke-linejoin="round"/>
</g>
<defs>
<clipPath id="clip0_144_156">
<rect width="24" height="24" fill="white"/>
</clipPath>
</defs>
</svg>
