<svg width="17" height="16" viewBox="0 0 17 16" fill="none" xmlns="http://www.w3.org/2000/svg">
<path fill-rule="evenodd" clip-rule="evenodd" d="M10.715 8.84667L14.535 12.6667L13.5417 13.66L9.72167 9.84C9.00833 10.3533 8.14833 10.6667 7.20833 10.6667C4.815 10.6667 2.875 8.72667 2.875 6.33333C2.875 3.94 4.815 2 7.20833 2C9.60167 2 11.5417 3.94 11.5417 6.33333C11.5417 7.27333 11.2283 8.13333 10.715 8.84667ZM7.20833 3.33333C5.54833 3.33333 4.20833 4.67333 4.20833 6.33333C4.20833 7.99333 5.54833 9.33333 7.20833 9.33333C8.86833 9.33333 10.2083 7.99333 10.2083 6.33333C10.2083 4.67333 8.86833 3.33333 7.20833 3.33333Z" fill="#49454F"/>
</svg>
