<svg width="25" height="24" viewBox="0 0 25 24" fill="none" xmlns="http://www.w3.org/2000/svg">
<path fill-rule="evenodd" clip-rule="evenodd" d="M19.875 4H18.875V2H16.875V4H8.875V2H6.875V4H5.875C4.765 4 3.875 4.9 3.875 6V20C3.875 21.1 4.765 22 5.875 22H19.875C20.975 22 21.875 21.1 21.875 20V6C21.875 4.9 20.975 4 19.875 4ZM19.875 20H5.875V9H19.875V20ZM7.375 13C7.375 11.62 8.495 10.5 9.875 10.5C11.255 10.5 12.375 11.62 12.375 13C12.375 14.38 11.255 15.5 9.875 15.5C8.495 15.5 7.375 14.38 7.375 13Z" fill="#49454F"/>
</svg>
