<svg width="47" height="48" viewBox="0 0 47 48" fill="none" xmlns="http://www.w3.org/2000/svg">
<path d="M26.89 0.260817C27.7293 1.00935 27.7293 1.00935 28.5072 1.92488C28.7687 2.22604 29.0302 2.52719 29.2996 2.83748C29.89 3.63582 29.89 3.63582 29.89 4.38582C30.1529 4.25482 30.4159 4.12382 30.6868 3.98884C32.8411 2.95562 34.6254 2.27108 37.015 2.13582C38.7552 4.61029 40.1905 7.17657 41.5619 9.87019C41.9452 10.6175 42.3289 11.3646 42.7132 12.1114C42.8922 12.4615 43.0712 12.8116 43.2556 13.1723C43.6944 14.0023 44.1612 14.7985 44.6527 15.5977C45.265 16.7608 45.265 16.7608 45.265 18.6358C44.0275 18.8833 42.79 19.1308 41.515 19.3858C41.7625 19.6952 42.01 20.0046 42.265 20.3233C43.5978 22.5807 43.124 25.4875 43.015 28.0108C43.3708 28.0495 43.7265 28.0882 44.0931 28.128C45.265 28.3858 45.265 28.3858 46.015 29.5108C46.1974 30.9424 46.1711 32.3814 46.179 33.8233C46.1914 34.2202 46.2037 34.6171 46.2164 35.026C46.2239 36.0956 46.2084 37.0836 46.015 38.1358C44.9466 39.1489 44.4732 39.2608 43.015 39.2608C43.028 39.6722 43.0411 40.0836 43.0545 40.5074C43.0651 41.0528 43.0753 41.5982 43.0853 42.1436C43.0947 42.4141 43.1041 42.6846 43.1139 42.9632C43.1375 44.6878 42.9721 45.7762 41.89 47.1358C40.7142 47.9197 40.4567 47.9792 39.1206 47.976C38.6166 47.9776 38.6166 47.9776 38.1024 47.9791C37.7348 47.9764 37.3671 47.9737 36.9883 47.971C36.4065 47.9711 36.4065 47.9711 35.813 47.9713C34.5285 47.9708 33.2442 47.9649 31.9598 47.9591C31.0702 47.9577 30.1806 47.9566 29.291 47.9558C26.9477 47.953 24.6044 47.9456 22.2611 47.9373C19.8707 47.9296 17.4803 47.9262 15.0899 47.9224C10.3983 47.9144 5.70662 47.9017 1.01497 47.8858C0.988887 43.9154 0.968908 39.945 0.956685 35.9745C0.950818 34.1308 0.942861 32.2871 0.930103 30.4434C0.917865 28.6635 0.91115 26.8838 0.908237 25.1039C0.906161 24.4254 0.902105 23.7469 0.896026 23.0685C0.887839 22.1169 0.886736 21.1656 0.887257 20.214C0.883212 19.9346 0.879167 19.6551 0.875 19.3672C0.887002 17.3352 1.31707 15.788 2.70247 14.2691C4.11916 13.166 4.93555 12.5992 6.76595 12.7149C8.67262 12.8222 10.5913 12.929 12.2002 11.7652C13.5604 10.4351 14.6798 8.90824 15.8132 7.38509C18.1075 4.4047 22.747 -1.28292 26.89 0.260817ZM24.64 2.13582C24.5162 2.38332 24.3925 2.63082 24.265 2.88582C25.3787 3.07144 25.3787 3.07144 26.515 3.26082C26.2675 2.88957 26.02 2.51832 25.765 2.13582C25.3937 2.13582 25.0225 2.13582 24.64 2.13582ZM19.4442 6.13631C19.0461 6.56919 19.0461 6.56919 18.64 7.01082C18.4249 7.2414 18.2097 7.47198 17.9881 7.70955C16.9825 8.8304 16.0293 9.99361 15.0672 11.1519C14.7194 11.5687 14.3712 11.9852 14.0228 12.4014C13.8489 12.6093 13.675 12.8171 13.4959 13.0312C12.0245 14.7696 10.4553 16.3689 8.81527 17.9503C8.09611 18.52 8.09611 18.52 8.13997 19.0108C10.855 19.0968 13.5698 19.1556 16.2859 19.1962C17.2087 19.2131 18.1315 19.2361 19.0541 19.2654C20.3845 19.3066 21.7138 19.3256 23.0448 19.3404C23.6584 19.3665 23.6584 19.3665 24.2845 19.3932C26.6686 19.3948 27.8516 19.0569 29.5678 17.3496C30.0593 16.7862 30.5435 16.2161 31.015 15.6358C31.2625 15.3883 31.51 15.1408 31.765 14.8858C31.8174 14.0379 31.7635 13.2171 31.7181 12.3692C31.7706 11.4078 32.0332 10.835 32.515 10.0108C31.8377 9.1259 31.1501 8.25445 30.4525 7.38582C30.263 7.13542 30.0735 6.88502 29.8783 6.62703C28.8009 5.25546 28.8009 5.25546 27.2451 4.61653C26.5003 4.63103 25.7569 4.6944 25.015 4.76082C24.1844 4.49129 24.1844 4.49129 23.5384 4.19832C21.6415 3.67016 20.7252 4.85532 19.4442 6.13631ZM34.765 4.38582C35.1362 4.75707 35.5075 5.12832 35.89 5.51082C36.1375 5.38707 36.385 5.26332 36.64 5.13582C36.5162 4.88832 36.3925 4.64082 36.265 4.38582C35.77 4.38582 35.275 4.38582 34.765 4.38582ZM32.14 5.51082C32.14 7.13499 32.1785 7.23655 33.2064 8.33504C33.4263 8.57722 33.6463 8.8194 33.8729 9.06892C34.1054 9.31787 34.3379 9.56682 34.5775 9.82332C35.0379 10.3163 35.4951 10.8123 35.9486 11.3116C36.1528 11.5299 36.357 11.7481 36.5675 11.973C37.015 12.6358 37.015 12.6358 37.015 14.1358C36.5896 14.3214 36.1642 14.5071 35.7259 14.6983C33.7578 15.6736 32.1775 17.0805 30.64 18.6358C30.64 18.7596 30.64 18.8833 30.64 19.0108C31.9368 19.0217 33.2337 19.0284 34.5306 19.0343C34.8999 19.0374 35.2692 19.0405 35.6497 19.0438C36.0026 19.045 36.3555 19.0462 36.7191 19.0474C37.0451 19.0494 37.3711 19.0514 37.7069 19.0534C38.5339 19.0638 38.5339 19.0638 39.265 18.6358C39.4927 17.7097 39.624 16.782 39.7674 15.8394C40.0388 14.7942 40.4435 14.1999 41.14 13.3858C39.5701 9.60141 39.5701 9.60141 36.7718 6.85994C35.8439 6.71364 34.9523 6.67011 34.015 6.63582C32.8431 6.02644 32.8431 6.02644 32.14 5.51082ZM33.64 11.8858C33.5162 12.5046 33.3925 13.1233 33.265 13.7608C33.76 13.5133 34.255 13.2658 34.765 13.0108C34.3937 12.6396 34.0225 12.2683 33.64 11.8858ZM4.38997 15.6358C4.06513 15.8795 4.06513 15.8795 3.73372 16.128C3.06404 17.0321 3.01225 17.9103 2.88997 19.0108C3.86221 19.1701 4.5284 19.158 5.37673 18.6301C6.04494 18.0974 6.68434 17.5433 7.31966 16.9718C7.54372 16.7782 7.76777 16.5846 7.99862 16.3851C8.55648 15.8974 9.09965 15.3929 9.63997 14.8858C9.63997 14.7621 9.63997 14.6383 9.63997 14.5108C6.83041 14.343 6.83041 14.343 4.38997 15.6358ZM41.89 15.6358C41.6425 16.2546 41.395 16.8733 41.14 17.5108C41.7587 17.3871 42.3775 17.2633 43.015 17.1358C42.7675 16.6408 42.52 16.1458 42.265 15.6358C42.1412 15.6358 42.0175 15.6358 41.89 15.6358ZM2.88997 20.8858C2.88997 27.6921 2.88997 34.4983 2.88997 41.5108C15.5125 41.5108 28.135 41.5108 41.14 41.5108C41.14 40.7683 41.14 40.0258 41.14 39.2608C40.7557 39.2197 40.3714 39.1786 39.9754 39.1363C39.4651 39.0765 38.9549 39.0164 38.4447 38.9561C38.1921 38.9298 37.9395 38.9034 37.6793 38.8763C36.0783 38.6811 34.9352 38.3549 33.64 37.3858C32.4102 35.6048 32.1757 33.8644 32.515 31.7608C33.3619 30.067 34.2041 29.2124 35.89 28.3858C37.2215 28.1939 37.2215 28.1939 38.6322 28.128C39.3377 28.091 39.3377 28.091 40.0575 28.0533C40.5933 28.0323 40.5933 28.0323 41.14 28.0108C41.1908 27.1755 41.2271 26.3393 41.2572 25.503C41.2789 25.0375 41.3007 24.572 41.3231 24.0924C41.2429 22.7374 41.2429 22.7374 40.413 21.7534C38.8249 20.5533 37.6525 20.6337 35.713 20.673C35.3579 20.6727 35.0029 20.6724 34.6371 20.6721C33.4661 20.6734 32.2957 20.688 31.1248 20.7027C30.312 20.7062 29.4991 20.7089 28.6863 20.7108C26.5488 20.7179 24.4115 20.7363 22.2742 20.7571C19.7086 20.7796 17.143 20.7882 14.5774 20.7992C10.6814 20.8173 6.78596 20.8533 2.88997 20.8858ZM34.2494 31.6436C33.8951 32.9542 33.8953 34.238 34.39 35.5108C35.2203 36.4962 35.8659 36.958 37.1566 37.1287C38.2149 37.1585 39.2616 37.1415 40.3197 37.1046C40.6868 37.0978 41.0539 37.091 41.4322 37.0841C42.3352 37.0664 43.2374 37.0418 44.14 37.0108C44.15 35.8936 44.1575 34.7765 44.1634 33.6593C44.1666 33.3405 44.1697 33.0217 44.1729 32.6932C44.1741 32.3899 44.1754 32.0865 44.1766 31.774C44.1786 31.4932 44.1805 31.2124 44.1825 30.923C44.2125 30.2508 44.2125 30.2508 43.765 29.8858C42.612 29.7814 41.4533 29.7989 40.2962 29.7921C39.8126 29.7805 39.8126 29.7805 39.3192 29.7686C37.2039 29.7556 35.6684 29.9021 34.2494 31.6436ZM2.88997 43.3858C2.88997 44.2521 2.88997 45.1183 2.88997 46.0108C7.71102 46.0455 12.532 46.0722 17.3532 46.0885C19.5917 46.0964 21.8301 46.107 24.0686 46.124C26.2277 46.1402 28.3868 46.1492 30.546 46.1531C31.3709 46.1559 32.1958 46.1613 33.0206 46.1694C34.1736 46.1803 35.3263 46.1818 36.4793 46.1811C36.994 46.1892 36.9939 46.1892 37.519 46.1974C39.3221 46.2303 39.3221 46.2303 40.7985 45.3205C41.2128 44.4845 41.2128 44.4845 41.14 43.3858C28.5175 43.3858 15.895 43.3858 2.88997 43.3858Z" fill="#2348AB"/>
</svg>
