<svg width="49" height="48" viewBox="0 0 49 48" fill="none" xmlns="http://www.w3.org/2000/svg">
<path d="M32.2178 16V9.00133C32.2178 7.33785 32.2178 6.50611 31.8674 5.99497C31.5612 5.54839 31.0871 5.24501 30.5533 5.15418C29.9423 5.05022 29.1872 5.39877 27.6768 6.09586L9.9358 14.284C8.58878 14.9057 7.91528 15.2166 7.42199 15.6987C6.98589 16.1249 6.65301 16.6451 6.44878 17.2197C6.21777 17.8696 6.21777 18.6114 6.21777 20.0949V30M33.2178 29H33.2378M6.21777 22.4L6.21777 35.6C6.21777 37.8402 6.21777 38.9603 6.65375 39.816C7.03724 40.5686 7.64916 41.1806 8.40181 41.564C9.25746 42 10.3776 42 12.6178 42H35.8178C38.058 42 39.1781 42 40.0337 41.564C40.7864 41.1806 41.3983 40.5686 41.7818 39.816C42.2178 38.9603 42.2178 37.8402 42.2178 35.6V22.4C42.2178 20.1598 42.2178 19.0397 41.7818 18.1841C41.3983 17.4314 40.7864 16.8195 40.0337 16.436C39.1781 16 38.058 16 35.8178 16L12.6178 16C10.3776 16 9.25746 16 8.40181 16.436C7.64916 16.8195 7.03724 17.4314 6.65375 18.1841C6.21777 19.0397 6.21777 20.1598 6.21777 22.4ZM34.2178 29C34.2178 29.5523 33.7701 30 33.2178 30C32.6655 30 32.2178 29.5523 32.2178 29C32.2178 28.4477 32.6655 28 33.2178 28C33.7701 28 34.2178 28.4477 34.2178 29Z" stroke="#2348AB" stroke-width="2" stroke-linecap="round" stroke-linejoin="round"/>
</svg>
