<svg width="49" height="48" viewBox="0 0 49 48" fill="none" xmlns="http://www.w3.org/2000/svg">
<path d="M40.2178 19V14.4C40.2178 12.1598 40.2178 11.0397 39.7818 10.184C39.3983 9.43139 38.7864 8.81947 38.0337 8.43598C37.1781 8.00001 36.058 8 33.8178 8H10.6178C8.37756 8 7.25746 8 6.40181 8.43597C5.64916 8.81947 5.03724 9.43139 4.65375 10.184C4.21777 11.0397 4.21777 12.1598 4.21777 14.4V33.6C4.21777 35.8402 4.21777 36.9603 4.65375 37.816C5.03724 38.5686 5.64916 39.1805 6.40181 39.564C7.25746 40 8.37756 40 10.6178 40L33.8178 40C36.058 40 37.1781 40 38.0337 39.564C38.7864 39.1805 39.3983 38.5686 39.7818 37.816C40.2178 36.9603 40.2178 35.8402 40.2178 33.6V29M30.2178 24C30.2178 23.0707 30.2178 22.606 30.2946 22.2196C30.6103 20.6329 31.8506 19.3925 33.4374 19.0769C33.8238 19 34.2885 19 35.2178 19H39.2178C40.1471 19 40.6117 19 40.9981 19.0769C42.5849 19.3925 43.8253 20.6329 44.1409 22.2196C44.2178 22.606 44.2178 23.0707 44.2178 24C44.2178 24.9293 44.2178 25.394 44.1409 25.7804C43.8253 27.3671 42.5849 28.6075 40.9981 28.9231C40.6117 29 40.1471 29 39.2178 29H35.2178C34.2885 29 33.8238 29 33.4374 28.9231C31.8506 28.6075 30.6103 27.3671 30.2946 25.7804C30.2178 25.394 30.2178 24.9293 30.2178 24Z" stroke="#2348AB" stroke-width="2" stroke-linecap="round" stroke-linejoin="round"/>
</svg>
